<svg width="25" height="24" viewBox="0 0 25 24" fill="none" xmlns="http://www.w3.org/2000/svg">
<g clip-path="url(#clip0_1_187)">
<path d="M12.5 23.8636C19.4036 23.8636 25 18.5216 25 11.9318C25 5.34206 19.4036 0 12.5 0C5.59644 0 0 5.34206 0 11.9318C0 18.5216 5.59644 23.8636 12.5 23.8636Z" fill="white"/>
<path d="M17.6336 8.40693C17.4271 8.21169 17.0922 8.21169 16.8857 8.40693L10.5498 14.3964L8.11435 12.0941C7.90784 11.8989 7.57301 11.8989 7.36645 12.0941C7.15991 12.2894 7.15991 12.6059 7.36645 12.8011L10.1758 15.4568C10.3823 15.652 10.7173 15.6519 10.9237 15.4568L17.6336 9.11393C17.8401 8.9187 17.8401 8.60217 17.6336 8.40693Z" fill="white" stroke="#B66EE8" stroke-width="4.88889"/>
</g>
<defs>
<clipPath id="clip0_1_187">
<rect width="25" height="23.8636" fill="white"/>
</clipPath>
</defs>
</svg>
