<svg width="54" height="60" viewBox="0 0 54 60" fill="none" xmlns="http://www.w3.org/2000/svg">
<path d="M20.1942 0L9.21919 1.15824L0 13.1851V19.8669L7.02406 27.7067L15.1019 26.0141L21.2481 27.2612L19.9311 32.072L24.1454 39.8228L22.0383 45.2572L27.0126 60L33.7159 58.8878L39.8621 51.8498L40.3888 46.9498L44.3399 43.9208L43.5495 35.101L54 21.5291L47.5006 22.4504L37.5791 4.89998L21.9503 3.83091L20.1943 0.000126778L20.1942 0ZM51.7411 40.5657L49.9407 43.2118L48.2645 43.2747C46.7832 46.3597 46.6895 48.0973 46.5259 51.716L48.699 52.2831L51.4308 45.6684L51.7411 40.5657Z" fill="white"/>
</svg>
