<svg width="393" height="648" viewBox="0 0 393 648" fill="none" xmlns="http://www.w3.org/2000/svg">
<path fill-rule="evenodd" clip-rule="evenodd" d="M-140 324C-140 238.07 -105.864 155.659 -45.1026 94.8974C15.6592 34.1356 98.0699 0 184 0C269.93 0 352.341 34.1356 413.103 94.8974C473.864 155.659 508 238.07 508 324C508 409.93 473.864 492.341 413.103 553.103C352.341 613.864 269.93 648 184 648C98.0699 648 15.6592 613.864 -45.1026 553.103C-105.864 492.341 -140 409.93 -140 324ZM-96.8 324C-96.795 256.807 -72.7029 191.842 -28.8952 140.892C14.9125 89.9433 75.533 56.3863 141.966 46.3104L162.4 56.592V73.0944L131.123 88.7328C127.743 90.4286 124.868 92.982 122.785 96.1376C120.701 99.2933 119.483 102.941 119.251 106.715C119.019 110.489 119.782 114.258 121.464 117.645C123.145 121.032 125.687 123.918 128.834 126.014L193.634 169.214C197.182 171.562 201.345 172.809 205.6 172.8H227.2C232.929 172.8 238.423 170.524 242.474 166.474C246.524 162.423 248.8 156.929 248.8 151.2V129.6H270.4V151.2C270.395 154.038 270.949 156.85 272.032 159.474C273.114 162.098 274.703 164.483 276.707 166.493L292 181.742V207.058L283.058 216H253.898L172.077 175.09C169.073 173.584 165.76 172.801 162.4 172.801C159.04 172.801 155.727 173.584 152.723 175.09L114.102 194.4H54.4C49.5819 194.401 44.9025 196.014 41.106 198.98C37.3096 201.947 34.614 206.098 33.448 210.773L11.848 297.173C10.9391 300.791 10.9827 304.582 11.9744 308.178C12.9662 311.774 14.8723 315.052 17.5072 317.693L82.3072 382.493C83.9516 384.125 85.8479 385.481 87.9232 386.51L119.2 402.192V453.6C119.195 456.438 119.749 459.25 120.832 461.874C121.914 464.498 123.503 466.883 125.507 468.893L140.8 484.142V518.4C140.8 521.76 141.584 525.073 143.09 528.077L164.69 571.277C166.485 574.86 169.242 577.873 172.653 579.979C176.063 582.085 179.992 583.2 184 583.2H227.2C230.757 583.198 234.259 582.318 237.394 580.637C240.529 578.957 243.201 576.528 245.171 573.566L288.371 508.766C288.864 508.031 289.311 507.267 289.71 506.477L311.31 463.277C312.816 460.273 313.6 456.96 313.6 453.6V417.614L374.08 336.96C376.489 333.748 377.955 329.929 378.313 325.93C378.672 321.932 377.909 317.912 376.11 314.323L370.192 302.4H400.043C405.772 302.4 411.266 300.124 415.317 296.074C419.367 292.023 421.643 286.529 421.643 280.8V259.2H457.326C466.399 297.736 467.221 337.755 459.737 376.632C452.253 415.508 436.634 452.362 413.903 484.776C391.172 517.19 361.843 544.431 327.842 564.711C293.841 584.991 255.936 597.853 216.614 602.451C177.292 607.049 137.443 603.281 99.6798 591.393C61.917 579.504 27.0949 559.765 -2.50151 533.471C-32.0979 507.176 -55.7995 474.92 -72.0511 438.819C-88.3027 402.719 -96.7368 363.59 -96.8 324Z" fill="#C879FF" fill-opacity="0.2"/>
</svg>
