<svg width="120" height="120" viewBox="0 0 120 120" fill="none" xmlns="http://www.w3.org/2000/svg">
<g clip-path="url(#clip0_1_42)">
<path d="M60 120C93.1371 120 120 93.1371 120 60C120 26.8629 93.1371 0 60 0C26.8629 0 0 26.8629 0 60C0 93.1371 26.8629 120 60 120Z" fill="white"/>
<path d="M84.641 42.2748C83.6497 41.293 82.0425 41.293 81.051 42.2748L50.6387 72.393L38.9487 60.8162C37.9574 59.8344 36.3503 59.8345 35.3588 60.8162C34.3674 61.7979 34.3674 63.3895 35.3588 64.3713L48.8437 77.7255C49.8347 78.7072 51.4431 78.7065 52.4337 77.7255L84.641 45.83C85.6324 44.8483 85.6323 43.2566 84.641 42.2748Z" fill="white" stroke="#B66EE8" stroke-width="4.88889"/>
</g>
<defs>
<clipPath id="clip0_1_42">
<rect width="120" height="120" fill="white"/>
</clipPath>
</defs>
</svg>
