<svg width="22" height="22" viewBox="0 0 22 22" fill="none" xmlns="http://www.w3.org/2000/svg">
<circle cx="11" cy="11" r="11" fill="#FDDA0D"/>
<path d="M14.8693 9.88291L14.2846 9.30624L14.9548 8.6272L15.5195 9.18424L15.9304 8.76807L13.6819 6.55028L13.2714 6.96645L13.8362 7.52349L13.166 8.20293L12.5814 7.62626L7.59567 12.6811L7.56203 14.7728L6.68145 15.6656L6.72842 16.0736L7.78942 14.9978L9.88048 14.9354L14.8693 9.88291ZM14.2077 9.88746L11.6748 12.4554L10.057 10.8597L10.7009 10.206L11.5122 11.0062L11.8507 10.663L11.0395 9.86278L11.6358 9.25824L12.447 10.0584L12.7856 9.71518L11.9743 8.91501L12.5875 8.2933L14.2077 9.88746Z" fill="white"/>
</svg>
