<svg width="24" height="24" viewBox="0 0 24 24" fill="none" xmlns="http://www.w3.org/2000/svg">
<circle cx="12" cy="12" r="12" fill="#A564D3"/>
<path d="M16.221 10.7803L15.5832 10.1512L16.3143 9.41042L16.9304 10.0181L17.3786 9.56411L14.9256 7.1447L14.4778 7.5987L15.094 8.20638L14.3629 8.94758L13.7251 8.3185L8.28614 13.8328L8.24944 16.1147L7.28881 17.0887L7.34005 17.5337L8.49751 16.3602L10.7787 16.2921L16.221 10.7803ZM15.4992 10.7853L12.7361 13.5867L10.9712 11.8459L11.6737 11.1328L12.5587 12.0057L12.928 11.6313L12.043 10.7583L12.6935 10.0988L13.5785 10.9717L13.9478 10.5973L13.0628 9.7244L13.7318 9.04617L15.4992 10.7853Z" fill="white"/>
</svg>
