<svg width="35" height="36" viewBox="0 0 35 36" fill="none" xmlns="http://www.w3.org/2000/svg">
<path d="M30.3035 12.2973L28.156 10.1792L30.6175 7.68506L32.6919 9.73111L34.201 8.20251L25.942 0.0564613L24.4343 1.58505L26.5087 3.6311L24.0473 6.1267L21.8998 4.00859L3.58709 22.5751L3.46353 30.2581L0.229136 33.5374L0.40166 35.0359L4.29876 31.0848L11.9793 30.8554L30.3035 12.2973ZM27.8733 12.3141L18.57 21.7463L12.6275 15.8852L14.9929 13.4841L17.9727 16.4232L19.2162 15.1625L16.2364 12.2234L18.4265 10.0029L21.4064 12.942L22.6498 11.6813L19.67 8.7422L21.9223 6.45863L27.8733 12.3141Z" fill="white"/>
</svg>
