<svg width="250" height="49" viewBox="0 0 250 49" fill="none" xmlns="http://www.w3.org/2000/svg">
<path d="M2.656 39.4629V17.0629H7.84V39.4629H2.656ZM34.852 21.9909C36.2173 21.9909 37.4227 22.2682 38.468 22.8229C39.5347 23.3562 40.3667 24.1882 40.964 25.3189C41.5827 26.4282 41.892 27.8576 41.892 29.6069V39.4629H36.9V30.3749C36.9 28.9882 36.612 27.9642 36.036 27.3029C35.46 26.6416 34.6493 26.3109 33.604 26.3109C32.8787 26.3109 32.228 26.4816 31.652 26.8229C31.076 27.1429 30.628 27.6336 30.308 28.2949C29.988 28.9562 29.828 29.7989 29.828 30.8229V39.4629H24.836V30.3749C24.836 28.9882 24.548 27.9642 23.972 27.3029C23.4173 26.6416 22.6173 26.3109 21.572 26.3109C20.8467 26.3109 20.196 26.4816 19.62 26.8229C19.044 27.1429 18.596 27.6336 18.276 28.2949C17.956 28.9562 17.796 29.7989 17.796 30.8229V39.4629H12.804V22.2469H17.572V26.9509L16.676 25.5749C17.2733 24.4016 18.116 23.5162 19.204 22.9189C20.3133 22.3002 21.572 21.9909 22.98 21.9909C24.5587 21.9909 25.9347 22.3962 27.108 23.2069C28.3027 23.9962 29.092 25.2122 29.476 26.8549L27.716 26.3749C28.292 25.0309 29.2093 23.9642 30.468 23.1749C31.748 22.3856 33.2093 21.9909 34.852 21.9909ZM68.4145 21.9909C69.7798 21.9909 70.9852 22.2682 72.0305 22.8229C73.0972 23.3562 73.9292 24.1882 74.5265 25.3189C75.1452 26.4282 75.4545 27.8576 75.4545 29.6069V39.4629H70.4625V30.3749C70.4625 28.9882 70.1745 27.9642 69.5985 27.3029C69.0225 26.6416 68.2118 26.3109 67.1665 26.3109C66.4412 26.3109 65.7905 26.4816 65.2145 26.8229C64.6385 27.1429 64.1905 27.6336 63.8705 28.2949C63.5505 28.9562 63.3905 29.7989 63.3905 30.8229V39.4629H58.3985V30.3749C58.3985 28.9882 58.1105 27.9642 57.5345 27.3029C56.9798 26.6416 56.1798 26.3109 55.1345 26.3109C54.4092 26.3109 53.7585 26.4816 53.1825 26.8229C52.6065 27.1429 52.1585 27.6336 51.8385 28.2949C51.5185 28.9562 51.3585 29.7989 51.3585 30.8229V39.4629H46.3665V22.2469H51.1345V26.9509L50.2385 25.5749C50.8358 24.4016 51.6785 23.5162 52.7665 22.9189C53.8758 22.3002 55.1345 21.9909 56.5425 21.9909C58.1212 21.9909 59.4972 22.3962 60.6705 23.2069C61.8652 23.9962 62.6545 25.2122 63.0385 26.8549L61.2785 26.3749C61.8545 25.0309 62.7718 23.9642 64.0305 23.1749C65.3105 22.3856 66.7718 21.9909 68.4145 21.9909ZM87.193 39.7189C85.7637 39.7189 84.4837 39.4416 83.353 38.8869C82.2437 38.3322 81.3797 37.4896 80.761 36.3589C80.1423 35.2069 79.833 33.7456 79.833 31.9749V22.2469H84.825V31.2389C84.825 32.6682 85.1237 33.7242 85.721 34.4069C86.3397 35.0682 87.2037 35.3989 88.313 35.3989C89.081 35.3989 89.7637 35.2389 90.361 34.9189C90.9583 34.5776 91.4277 34.0656 91.769 33.3829C92.1103 32.6789 92.281 31.8042 92.281 30.7589V22.2469H97.273V39.4629H92.537V34.7269L93.401 36.1029C92.825 37.2976 91.9717 38.2042 90.841 38.8229C89.7317 39.4202 88.5157 39.7189 87.193 39.7189ZM112.362 21.9909C113.727 21.9909 114.943 22.2682 116.01 22.8229C117.098 23.3562 117.951 24.1882 118.57 25.3189C119.188 26.4282 119.498 27.8576 119.498 29.6069V39.4629H114.506V30.3749C114.506 28.9882 114.196 27.9642 113.578 27.3029C112.98 26.6416 112.127 26.3109 111.018 26.3109C110.228 26.3109 109.514 26.4816 108.874 26.8229C108.255 27.1429 107.764 27.6442 107.402 28.3269C107.06 29.0096 106.89 29.8842 106.89 30.9509V39.4629H101.898V22.2469H106.666V27.0149L105.77 25.5749C106.388 24.4229 107.274 23.5376 108.426 22.9189C109.578 22.3002 110.89 21.9909 112.362 21.9909ZM132.692 39.7189C130.729 39.7189 129.001 39.3349 127.508 38.5669C126.036 37.7989 124.894 36.7536 124.084 35.4309C123.273 34.0869 122.868 32.5616 122.868 30.8549C122.868 29.1269 123.262 27.6016 124.052 26.2789C124.862 24.9349 125.961 23.8896 127.348 23.1429C128.734 22.3749 130.302 21.9909 132.052 21.9909C133.737 21.9909 135.252 22.3536 136.596 23.0789C137.961 23.7829 139.038 24.8069 139.828 26.1509C140.617 27.4736 141.012 29.0629 141.012 30.9189C141.012 31.1109 141.001 31.3349 140.98 31.5909C140.958 31.8256 140.937 32.0496 140.916 32.2629H126.932V29.3509H138.292L136.372 30.2149C136.372 29.3189 136.19 28.5402 135.828 27.8789C135.465 27.2176 134.964 26.7056 134.324 26.3429C133.684 25.9589 132.937 25.7669 132.084 25.7669C131.23 25.7669 130.473 25.9589 129.812 26.3429C129.172 26.7056 128.67 27.2282 128.308 27.9109C127.945 28.5722 127.764 29.3616 127.764 30.2789V31.0469C127.764 31.9856 127.966 32.8176 128.372 33.5429C128.798 34.2469 129.385 34.7909 130.132 35.1749C130.9 35.5376 131.796 35.7189 132.82 35.7189C133.737 35.7189 134.537 35.5802 135.22 35.3029C135.924 35.0256 136.564 34.6096 137.14 34.0549L139.796 36.9349C139.006 37.8309 138.014 38.5242 136.82 39.0149C135.625 39.4842 134.249 39.7189 132.692 39.7189ZM141.743 39.4629L151.727 17.0629H156.847L166.863 39.4629H161.423L153.231 19.6869H155.279L147.055 39.4629H141.743ZM146.735 34.6629L148.111 30.7269H159.631L161.039 34.6629H146.735ZM169.443 39.4629V21.8629C169.443 19.9216 170.019 18.3749 171.171 17.2229C172.323 16.0496 173.966 15.4629 176.099 15.4629C176.825 15.4629 177.518 15.5376 178.179 15.6869C178.862 15.8362 179.438 16.0709 179.907 16.3909L178.595 20.0069C178.318 19.8149 178.009 19.6656 177.667 19.5589C177.326 19.4522 176.963 19.3989 176.579 19.3989C175.854 19.3989 175.289 19.6122 174.883 20.0389C174.499 20.4442 174.307 21.0629 174.307 21.8949V23.4949L174.435 25.6389V39.4629H169.443ZM166.787 26.4709V22.6309H178.723V26.4709H166.787ZM181.335 39.4629V22.2469H186.103V27.1109L185.431 25.7029C185.943 24.4869 186.765 23.5696 187.895 22.9509C189.026 22.3109 190.402 21.9909 192.023 21.9909V26.5989C191.81 26.5776 191.618 26.5669 191.447 26.5669C191.277 26.5456 191.095 26.5349 190.903 26.5349C189.538 26.5349 188.429 26.9296 187.575 27.7189C186.743 28.4869 186.327 29.6922 186.327 31.3349V39.4629H181.335ZM221.562 39.7189C219.706 39.7189 218.052 39.3456 216.602 38.5989C215.151 37.8309 214.01 36.7749 213.178 35.4309C212.367 34.0869 211.962 32.5616 211.962 30.8549C211.962 29.1269 212.367 27.6016 213.178 26.2789C214.01 24.9349 215.151 23.8896 216.602 23.1429C218.052 22.3749 219.706 21.9909 221.562 21.9909C223.375 21.9909 224.954 22.3749 226.298 23.1429C227.642 23.8896 228.634 24.9669 229.274 26.3749L225.402 28.4549C224.954 27.6442 224.388 27.0469 223.706 26.6629C223.044 26.2789 222.319 26.0869 221.53 26.0869C220.676 26.0869 219.908 26.2789 219.226 26.6629C218.543 27.0469 217.999 27.5909 217.594 28.2949C217.21 28.9989 217.018 29.8522 217.018 30.8549C217.018 31.8576 217.21 32.7109 217.594 33.4149C217.999 34.1189 218.543 34.6629 219.226 35.0469C219.908 35.4309 220.676 35.6229 221.53 35.6229C222.319 35.6229 223.044 35.4416 223.706 35.0789C224.388 34.6949 224.954 34.0869 225.402 33.2549L229.274 35.3669C228.634 36.7536 227.642 37.8309 226.298 38.5989C224.954 39.3456 223.375 39.7189 221.562 39.7189ZM242.708 39.4629V36.1029L242.388 35.3669V29.3509C242.388 28.2842 242.057 27.4522 241.396 26.8549C240.756 26.2576 239.764 25.9589 238.42 25.9589C237.502 25.9589 236.596 26.1082 235.7 26.4069C234.825 26.6842 234.078 27.0682 233.46 27.5589L231.668 24.0709C232.606 23.4096 233.737 22.8976 235.06 22.5349C236.382 22.1722 237.726 21.9909 239.092 21.9909C241.716 21.9909 243.753 22.6096 245.204 23.8469C246.654 25.0842 247.38 27.0149 247.38 29.6389V39.4629H242.708ZM237.46 39.7189C236.116 39.7189 234.964 39.4949 234.004 39.0469C233.044 38.5776 232.308 37.9482 231.796 37.1589C231.284 36.3696 231.028 35.4842 231.028 34.5029C231.028 33.4789 231.273 32.5829 231.764 31.8149C232.276 31.0469 233.076 30.4496 234.164 30.0229C235.252 29.5749 236.67 29.3509 238.42 29.3509H242.996V32.2629H238.964C237.79 32.2629 236.98 32.4549 236.532 32.8389C236.105 33.2229 235.892 33.7029 235.892 34.2789C235.892 34.9189 236.137 35.4309 236.628 35.8149C237.14 36.1776 237.833 36.3589 238.708 36.3589C239.54 36.3589 240.286 36.1669 240.948 35.7829C241.609 35.3776 242.089 34.7909 242.388 34.0229L243.156 36.3269C242.793 37.4362 242.132 38.2789 241.172 38.8549C240.212 39.4309 238.974 39.7189 237.46 39.7189Z" fill="white"/>
<path d="M196.099 37.5475L199.116 37.5475L199.114 41.0518L196.201 41.0518L196.2 43.1998L207.8 43.1998L207.8 41.0528H204.887L204.887 37.5475H207.903L207.903 11.4693L202.596 5.91261L202.596 1.30667L201.42 0.360935L201.42 5.9106L196.113 11.4673L196.099 37.5475ZM197.818 35.8291L197.818 22.5807L206.164 22.5807L206.166 25.9512H201.981L201.981 27.7219H206.166L206.166 30.8408H201.981L201.981 32.6116H206.166L206.166 35.819L197.818 35.8291Z" fill="white"/>
</svg>
